C:\Users\r0593348\3dpredictsim\Results\batch_windlass\Pog_s1_tmt_bCst_d00_k1500_WL30_ig24_pas_GRF.mot
nRows=30
nColumns=19

name C:\Users\r0593348\3dpredictsim\Results\batch_windlass\Pog_s1_tmt_bCst_d00_k1500_WL30_ig24_pas_GRF.mot
datacolumns 19
datarows 30
range 0.5587768480 0.8828674198
endheader
time 	ground_force_vx	ground_force_vy	ground_force_vz	ground_force_px	ground_force_py	ground_force_pz	1_ground_force_vx	1_ground_force_vy	1_ground_force_vz	1_ground_force_px	1_ground_force_py	1_ground_force_pz	ground_torque_x	ground_torque_y	ground_torque_z	1_ground_torque_x	1_ground_torque_y	1_ground_torque_z
        0.5587768480	       97.1583427523	      499.8030001622	        2.0931569987	        0.3833139019	        0.0000000000	        0.0353616360	      -70.2656601059	       49.3079570872	      -17.3850156258	        0.8657684448	        0.0000000000	       -0.0418490512	        0.0000000000	        0.0000000000	        0.0000000000	        0.0000000000	        0.0000000000	        0.0000000000	
        0.5699523849	       80.0219806204	      411.2591742095	        6.3021633316	        0.3876709157	        0.0000000000	        0.0339573463	     -120.4696219408	      106.4513117970	      -39.8035860927	        0.8766640044	        0.0000000000	       -0.0391281596	        0.0000000000	        0.0000000000	        0.0000000000	        0.0000000000	        0.0000000000	        0.0000000000	
        0.5811279219	       55.7620112062	      317.6002862815	       11.2192203084	        0.3941784317	        0.0000000000	        0.0314331864	      -95.7461140434	      217.5837131262	      -59.5054889623	        0.8838571785	        0.0000000000	       -0.0375055243	        0.0000000000	        0.0000000000	        0.0000000000	        0.0000000000	        0.0000000000	        0.0000000000	
        0.5923034588	       27.0710512987	      220.0061156720	        9.7401601745	        0.4050741818	        0.0000000000	        0.0262328073	      -53.5418591844	      388.9506127051	      -12.7083628569	        0.8880304908	        0.0000000000	       -0.0363802305	        0.0000000000	        0.0000000000	        0.0000000000	        0.0000000000	        0.0000000000	        0.0000000000	
        0.6034789958	       10.6820946877	      155.7928956770	        9.4341627714	        0.4163942159	        0.0000000000	        0.0199692669	      -61.0691878328	      579.3468453642	        5.6236440041	        0.8947367443	        0.0000000000	       -0.0379336996	        0.0000000000	        0.0000000000	        0.0000000000	        0.0000000000	        0.0000000000	        0.0000000000	
        0.6146545328	        2.4528485290	      123.8979601357	        8.9667216627	        0.4159784524	        0.0000000000	        0.0202207824	      -88.7333648862	      744.2454093280	       12.6688805262	        0.9021338666	        0.0000000000	       -0.0401708614	        0.0000000000	        0.0000000000	        0.0000000000	        0.0000000000	        0.0000000000	        0.0000000000	
        0.6258300697	       -3.2715555888	       81.7221984453	        8.7847502513	        0.4161478373	        0.0000000000	        0.0203431168	     -104.4736586369	      823.2543222192	       15.4331900498	        0.9074969914	        0.0000000000	       -0.0416716233	        0.0000000000	        0.0000000000	        0.0000000000	        0.0000000000	        0.0000000000	        0.0000000000	
        0.6370056067	      -10.0318452992	       33.9856323446	        5.1556248997	        0.4153995285	        0.0000000000	        0.0203340721	     -108.2477320595	      842.1999645414	       16.4469420499	        0.9118649430	        0.0000000000	       -0.0427459954	        0.0000000000	        0.0000000000	        0.0000000000	        0.0000000000	        0.0000000000	        0.0000000000	
        0.6481811436	        0.1163586080	       -0.1174657824	       -0.0019369231	        0.0000000000	        0.0000000000	        0.0000000000	     -109.5523954260	      843.4844773288	       15.9875568610	        0.9156149061	        0.0000000000	       -0.0434226999	        0.0000000000	        0.0000000000	        0.0000000000	        0.0000000000	        0.0000000000	        0.0000000000	
        0.6593566806	        0.0000922728	       -0.0000774680	        0.0000053827	        0.0000000000	        0.0000000000	        0.0000000000	      -98.3249735396	      831.2634597927	       16.0381715195	        0.9190692593	        0.0000000000	       -0.0435940599	        0.0000000000	        0.0000000000	        0.0000000000	        0.0000000000	        0.0000000000	        0.0000000000	
        0.6705322176	        0.0000195823	       -0.0000143511	        0.0000014249	        0.0000000000	        0.0000000000	        0.0000000000	      -85.6549318041	      799.5198441827	       16.6515422940	        0.9229022087	        0.0000000000	       -0.0436601254	        0.0000000000	        0.0000000000	        0.0000000000	        0.0000000000	        0.0000000000	        0.0000000000	
        0.6817077545	        0.0000850137	       -0.0000561303	        0.0000067729	        0.0000000000	        0.0000000000	        0.0000000000	      -74.3418453263	      764.1431651236	       16.6559393313	        0.9273225726	        0.0000000000	       -0.0436034462	        0.0000000000	        0.0000000000	        0.0000000000	        0.0000000000	        0.0000000000	        0.0000000000	
        0.6928832915	        0.0026076499	       -0.0015983755	        0.0002083669	        0.0000000000	        0.0000000000	        0.0000000000	      -63.7444428239	      726.7048816019	       16.4610473634	        0.9317256332	        0.0000000000	       -0.0435130305	        0.0000000000	        0.0000000000	        0.0000000000	        0.0000000000	        0.0000000000	        0.0000000000	
        0.7040588284	       -0.0158725514	        0.0091320834	       -0.0012576408	        0.0000000000	        0.0000000000	        0.0000000000	      -53.6563019242	      690.9318319048	       16.5987588199	        0.9358035958	        0.0000000000	       -0.0434780476	        0.0000000000	        0.0000000000	        0.0000000000	        0.0000000000	        0.0000000000	        0.0000000000	
        0.7152343654	       -0.0136411901	        0.0073919789	       -0.0010927042	        0.0000000000	        0.0000000000	        0.0000000000	      -44.2645912543	      660.0948005854	       17.0528959867	        0.9397583154	        0.0000000000	       -0.0435055400	        0.0000000000	        0.0000000000	        0.0000000000	        0.0000000000	        0.0000000000	        0.0000000000	
        0.7264099024	       -0.0082282236	        0.0042103924	       -0.0006782330	        0.0000000000	        0.0000000000	        0.0000000000	      -36.1178091334	      635.2283271929	       17.6339640327	        0.9437908559	        0.0000000000	       -0.0435747391	        0.0000000000	        0.0000000000	        0.0000000000	        0.0000000000	        0.0000000000	        0.0000000000	
        0.7375854393	       -0.0060000835	        0.0029124017	       -0.0005106089	        0.0000000000	        0.0000000000	        0.0000000000	      -29.2612683722	      615.3950241087	       18.3151470328	        0.9478410256	        0.0000000000	       -0.0436644499	        0.0000000000	        0.0000000000	        0.0000000000	        0.0000000000	        0.0000000000	        0.0000000000	
        0.7487609763	       -0.0058102476	        0.0026923757	       -0.0005084709	        0.0000000000	        0.0000000000	        0.0000000000	      -23.3917105631	      600.0884327729	       18.8442884683	        0.9520894335	        0.0000000000	       -0.0437592491	        0.0000000000	        0.0000000000	        0.0000000000	        0.0000000000	        0.0000000000	        0.0000000000	
        0.7599365132	       -0.0075128941	        0.0033464032	       -0.0006693855	        0.0000000000	        0.0000000000	        0.0000000000	      -18.8680061821	      589.3297391870	       19.1293696598	        0.9567232003	        0.0000000000	       -0.0438313284	        0.0000000000	        0.0000000000	        0.0000000000	        0.0000000000	        0.0000000000	        0.0000000000	
        0.7711120502	       -0.0124741397	        0.0053745640	       -0.0011185987	        0.0000000000	        0.0000000000	        0.0000000000	      -16.5253877401	      583.1800582142	       19.0131780004	        0.9616076366	        0.0000000000	       -0.0438624163	        0.0000000000	        0.0000000000	        0.0000000000	        0.0000000000	        0.0000000000	        0.0000000000	
        0.7822875872	       -0.0249044357	        0.0104324443	       -0.0022254811	        0.0000000000	        0.0000000000	        0.0000000000	      -14.5703013857	      580.9164367163	       18.9448737235	        0.9667699966	        0.0000000000	       -0.0438359908	        0.0000000000	        0.0000000000	        0.0000000000	        0.0000000000	        0.0000000000	        0.0000000000	
        0.7934631241	       -0.0551579221	        0.0225537117	       -0.0048850246	        0.0000000000	        0.0000000000	        0.0000000000	      -13.0234572761	      580.6561206829	       18.9410399184	        0.9721877954	        0.0000000000	       -0.0437499252	        0.0000000000	        0.0000000000	        0.0000000000	        0.0000000000	        0.0000000000	        0.0000000000	
        0.8046386611	       -0.1244597952	        0.0498314726	       -0.0108973376	        0.0000000000	        0.0000000000	        0.0000000000	      -11.4880532508	      581.0794299071	       18.9679100592	        0.9776896184	        0.0000000000	       -0.0436202536	        0.0000000000	        0.0000000000	        0.0000000000	        0.0000000000	        0.0000000000	        0.0000000000	
        0.8158141980	       -0.2639571384	        0.1037817145	       -0.0228267410	        0.0000000000	        0.0000000000	        0.0000000000	       -9.5633919408	      581.4633335894	       19.0405315460	        0.9833056218	        0.0000000000	       -0.0434555234	        0.0000000000	        0.0000000000	        0.0000000000	        0.0000000000	        0.0000000000	        0.0000000000	
        0.8269897350	       -0.4933795536	        0.1910936480	       -0.0420488389	        0.0000000000	        0.0000000000	        0.0000000000	       -7.6343737978	      581.1498945983	       19.0320974388	        0.9889664679	        0.0000000000	       -0.0432640199	        0.0000000000	        0.0000000000	        0.0000000000	        0.0000000000	        0.0000000000	        0.0000000000	
        0.8381652720	       -0.7861696556	        0.3010070214	       -0.0656956947	        0.0000000000	        0.0000000000	        0.0000000000	       -5.4579785653	      579.3338688716	       18.8821606493	        0.9945510001	        0.0000000000	       -0.0430608213	        0.0000000000	        0.0000000000	        0.0000000000	        0.0000000000	        0.0000000000	        0.0000000000	
        0.8493408089	       -1.0669441378	        0.4051768377	       -0.0866568983	        0.0000000000	        0.0000000000	        0.0000000000	       -2.9235755359	      575.7984202603	       18.5752144866	        1.0001084183	        0.0000000000	       -0.0428469424	        0.0000000000	        0.0000000000	        0.0000000000	        0.0000000000	        0.0000000000	        0.0000000000	
        0.8605163459	       -1.2588085404	        0.4753252497	       -0.0980126151	        0.0000000000	        0.0000000000	        0.0000000000	        0.0358782927	      570.6896772475	       17.6730551709	        1.0057172096	        0.0000000000	       -0.0426182626	        0.0000000000	        0.0000000000	        0.0000000000	        0.0000000000	        0.0000000000	        0.0000000000	
        0.8716918828	       -1.3330472977	        0.5011560715	       -0.0974532747	        0.0000000000	        0.0000000000	        0.0000000000	        3.8688787285	      564.2915913796	       16.2757792587	        1.0114358265	        0.0000000000	       -0.0423650812	        0.0000000000	        0.0000000000	        0.0000000000	        0.0000000000	        0.0000000000	        0.0000000000	
        0.8828674198	       -1.3054062492	        0.4888965357	       -0.0868252003	        0.0000000000	        0.0000000000	        0.0000000000	        8.0605382795	      557.2786997953	       14.3753437522	        1.0172490893	        0.0000000000	       -0.0420830896	        0.0000000000	        0.0000000000	        0.0000000000	        0.0000000000	        0.0000000000	        0.0000000000	
